<?xml version="1.0" encoding="UTF-8"?>
<!DOCTYPE svg PUBLIC "-//W3C//DTD SVG 1.1//EN" "http://www.w3.org/Graphics/SVG/1.1/DTD/svg11.dtd">
<svg version="1.2" width="37.72mm" height="6.49mm" viewBox="9430 11840 3772 649" preserveAspectRatio="xMidYMid" fill-rule="evenodd" stroke-width="28.222" stroke-linejoin="round" xmlns="http://www.w3.org/2000/svg" xmlns:ooo="http://xml.openoffice.org/svg/export" xmlns:xlink="http://www.w3.org/1999/xlink" xmlns:presentation="http://sun.com/xmlns/staroffice/presentation" xmlns:smil="http://www.w3.org/2001/SMIL20/" xmlns:anim="urn:oasis:names:tc:opendocument:xmlns:animation:1.0" xmlns:svg="urn:oasis:names:tc:opendocument:xmlns:svg-compatible:1.0" xml:space="preserve">
 <defs class="EmbeddedBulletChars">
  <g id="bullet-char-template-57356" transform="scale(0.00048828125,-0.00048828125)">
   <path d="M 580,1141 L 1163,571 580,0 -4,571 580,1141 Z"/>
  </g>
  <g id="bullet-char-template-57354" transform="scale(0.00048828125,-0.00048828125)">
   <path d="M 8,1128 L 1137,1128 1137,0 8,0 8,1128 Z"/>
  </g>
  <g id="bullet-char-template-10146" transform="scale(0.00048828125,-0.00048828125)">
   <path d="M 174,0 L 602,739 174,1481 1456,739 174,0 Z M 1358,739 L 309,1346 659,739 1358,739 Z"/>
  </g>
  <g id="bullet-char-template-10132" transform="scale(0.00048828125,-0.00048828125)">
   <path d="M 2015,739 L 1276,0 717,0 1260,543 174,543 174,936 1260,936 717,1481 1274,1481 2015,739 Z"/>
  </g>
  <g id="bullet-char-template-10007" transform="scale(0.00048828125,-0.00048828125)">
   <path d="M 0,-2 C -7,14 -16,27 -25,37 L 356,567 C 262,823 215,952 215,954 215,979 228,992 255,992 264,992 276,990 289,987 310,991 331,999 354,1012 L 381,999 492,748 772,1049 836,1024 860,1049 C 881,1039 901,1025 922,1006 886,937 835,863 770,784 769,783 710,716 594,584 L 774,223 C 774,196 753,168 711,139 L 727,119 C 717,90 699,76 672,76 641,76 570,178 457,381 L 164,-76 C 142,-110 111,-127 72,-127 30,-127 9,-110 8,-76 1,-67 -2,-52 -2,-32 -2,-23 -1,-13 0,-2 Z"/>
  </g>
  <g id="bullet-char-template-10004" transform="scale(0.00048828125,-0.00048828125)">
   <path d="M 285,-33 C 182,-33 111,30 74,156 52,228 41,333 41,471 41,549 55,616 82,672 116,743 169,778 240,778 293,778 328,747 346,684 L 369,508 C 377,444 397,411 428,410 L 1163,1116 C 1174,1127 1196,1133 1229,1133 1271,1133 1292,1118 1292,1087 L 1292,965 C 1292,929 1282,901 1262,881 L 442,47 C 390,-6 338,-33 285,-33 Z"/>
  </g>
  <g id="bullet-char-template-9679" transform="scale(0.00048828125,-0.00048828125)">
   <path d="M 813,0 C 632,0 489,54 383,161 276,268 223,411 223,592 223,773 276,916 383,1023 489,1130 632,1184 813,1184 992,1184 1136,1130 1245,1023 1353,916 1407,772 1407,592 1407,412 1353,268 1245,161 1136,54 992,0 813,0 Z"/>
  </g>
  <g id="bullet-char-template-8226" transform="scale(0.00048828125,-0.00048828125)">
   <path d="M 346,457 C 273,457 209,483 155,535 101,586 74,649 74,723 74,796 101,859 155,911 209,963 273,989 346,989 419,989 480,963 531,910 582,859 608,796 608,723 608,648 583,586 532,535 482,483 420,457 346,457 Z"/>
  </g>
  <g id="bullet-char-template-8211" transform="scale(0.00048828125,-0.00048828125)">
   <path d="M -4,459 L 1135,459 1135,606 -4,606 -4,459 Z"/>
  </g>
  <g id="bullet-char-template-61548" transform="scale(0.00048828125,-0.00048828125)">
   <path d="M 173,740 C 173,903 231,1043 346,1159 462,1274 601,1332 765,1332 928,1332 1067,1274 1183,1159 1299,1043 1357,903 1357,740 1357,577 1299,437 1183,322 1067,206 928,148 765,148 601,148 462,206 346,322 231,437 173,577 173,740 Z"/>
  </g>
 </defs>
 <g class="Page">
  <g class="Group">
   <g class="com.sun.star.drawing.ClosedBezierShape">
    <g id="id3">
     <rect class="BoundingBox" stroke="none" fill="none" x="9430" y="11840" width="325" height="516"/>
     <path fill="rgb(64,50,51)" stroke="none" d="M 9430,12281 C 9430,12281 9489,12355 9595,12355 9694,12355 9753,12289 9753,12213 9753,12050 9513,12072 9513,11971 9513,11934 9547,11904 9601,11904 9640,11904 9678,11923 9678,11949 L 9678,11973 9743,11973 9743,11932 C 9743,11864 9654,11840 9601,11840 9507,11840 9441,11899 9441,11973 9441,12129 9682,12112 9682,12217 9682,12263 9643,12291 9597,12291 9522,12291 9472,12231 9472,12231 L 9430,12281 Z"/>
    </g>
   </g>
   <g class="com.sun.star.drawing.ClosedBezierShape">
    <g id="id4">
     <rect class="BoundingBox" stroke="none" fill="none" x="9775" y="11891" width="209" height="461"/>
     <path fill="rgb(64,50,51)" stroke="none" d="M 9822,12217 C 9822,12336 9913,12350 9958,12350 9973,12350 9982,12349 9982,12349 L 9982,12288 C 9982,12288 9976,12289 9966,12289 9940,12289 9890,12280 9890,12209 L 9890,12045 9976,12045 9976,11990 9890,11990 9890,11892 9823,11892 9823,11990 9775,11990 9775,12045 9822,12045 9822,12217 Z"/>
    </g>
   </g>
   <g class="com.sun.star.drawing.ClosedBezierShape">
    <g id="id5">
     <rect class="BoundingBox" stroke="none" fill="none" x="10000" y="11986" width="244" height="362"/>
     <path fill="rgb(64,50,51)" stroke="none" d="M 10045,12347 L 10113,12347 10113,12201 C 10113,12179 10116,12157 10122,12137 10138,12084 10178,12053 10222,12053 10234,12053 10243,12055 10243,12055 L 10243,11987 C 10243,11987 10234,11986 10224,11986 10169,11986 10128,12027 10111,12079 L 10110,12079 C 10110,12079 10111,12068 10111,12054 L 10111,12032 C 10111,12003 10097,11990 10065,11990 L 10001,11990 10001,12049 10029,12049 C 10039,12049 10045,12054 10045,12064 L 10045,12347 Z"/>
    </g>
   </g>
   <g class="com.sun.star.drawing.ClosedBezierShape">
    <g id="id6">
     <rect class="BoundingBox" stroke="none" fill="none" x="10244" y="11981" width="335" height="375"/>
     <path fill="rgb(64,50,51)" stroke="none" d="M 10244,12168 C 10244,12274 10321,12355 10434,12355 10519,12355 10572,12303 10572,12303 L 10542,12254 C 10542,12254 10499,12296 10438,12296 10374,12296 10319,12253 10315,12176 L 10576,12176 C 10576,12176 10578,12157 10578,12148 10578,12056 10524,11981 10424,11981 10322,11981 10244,12054 10244,12168 Z M 10318,12126 C 10328,12067 10371,12035 10423,12035 10468,12035 10505,12067 10507,12126 L 10318,12126 Z"/>
    </g>
   </g>
   <g class="com.sun.star.drawing.ClosedBezierShape">
    <g id="id7">
     <rect class="BoundingBox" stroke="none" fill="none" x="10609" y="11981" width="335" height="375"/>
     <path fill="rgb(64,50,51)" stroke="none" d="M 10609,12168 C 10609,12274 10686,12355 10799,12355 10884,12355 10937,12303 10937,12303 L 10907,12254 C 10907,12254 10864,12296 10803,12296 10739,12296 10684,12253 10680,12176 L 10941,12176 C 10941,12176 10943,12157 10943,12148 10943,12056 10889,11981 10789,11981 10687,11981 10609,12054 10609,12168 Z M 10683,12126 C 10693,12067 10736,12035 10788,12035 10833,12035 10870,12067 10872,12126 L 10683,12126 Z"/>
    </g>
   </g>
   <g class="com.sun.star.drawing.ClosedBezierShape">
    <g id="id8">
     <rect class="BoundingBox" stroke="none" fill="none" x="10966" y="11891" width="209" height="461"/>
     <path fill="rgb(64,50,51)" stroke="none" d="M 11013,12217 C 11013,12336 11104,12350 11149,12350 11164,12350 11173,12349 11173,12349 L 11173,12288 C 11173,12288 11167,12289 11157,12289 11131,12289 11081,12280 11081,12209 L 11081,12045 11167,12045 11167,11990 11081,11990 11081,11892 11014,11892 11014,11990 10966,11990 10966,12045 11013,12045 11013,12217 Z"/>
    </g>
   </g>
   <g class="com.sun.star.drawing.ClosedBezierShape">
    <g id="id9">
     <rect class="BoundingBox" stroke="none" fill="none" x="11390" y="11840" width="325" height="516"/>
     <path fill="rgb(64,50,51)" stroke="none" d="M 11390,12281 C 11390,12281 11449,12355 11555,12355 11654,12355 11713,12289 11713,12213 11713,12050 11473,12072 11473,11971 11473,11934 11507,11904 11561,11904 11600,11904 11638,11923 11638,11949 L 11638,11973 11703,11973 11703,11932 C 11703,11864 11614,11840 11561,11840 11467,11840 11401,11899 11401,11973 11401,12129 11642,12112 11642,12217 11642,12263 11603,12291 11557,12291 11482,12291 11432,12231 11432,12231 L 11390,12281 Z"/>
    </g>
   </g>
   <g class="com.sun.star.drawing.ClosedBezierShape">
    <g id="id10">
     <rect class="BoundingBox" stroke="none" fill="none" x="11722" y="11990" width="576" height="358"/>
     <path fill="rgb(64,50,51)" stroke="none" d="M 11848,12347 L 11925,12347 11999,12118 C 12004,12099 12009,12079 12009,12079 L 12010,12079 C 12010,12079 12014,12099 12020,12118 L 12094,12347 12171,12347 12265,12063 C 12268,12051 12276,12049 12287,12049 L 12297,12049 12297,11990 12254,11990 C 12223,11990 12210,11998 12201,12028 L 12138,12240 C 12132,12259 12129,12279 12129,12279 L 12128,12279 C 12128,12279 12124,12259 12119,12240 L 12041,11991 11978,11991 11901,12240 C 11896,12259 11891,12279 11891,12279 L 11890,12279 C 11890,12279 11887,12259 11882,12240 L 11818,12028 C 11809,11998 11797,11990 11765,11990 L 11722,11990 11722,12049 11732,12049 C 11743,12049 11750,12051 11754,12063 L 11848,12347 Z"/>
    </g>
   </g>
   <g class="com.sun.star.drawing.ClosedBezierShape">
    <g id="id11">
     <rect class="BoundingBox" stroke="none" fill="none" x="12294" y="11849" width="158" height="499"/>
     <path fill="rgb(64,50,51)" stroke="none" d="M 12340,11920 L 12401,11920 12401,11849 12340,11849 12340,11920 Z M 12339,12302 C 12339,12334 12352,12347 12384,12347 L 12451,12347 12451,12288 12422,12288 C 12412,12288 12406,12283 12406,12273 L 12406,12035 C 12406,12003 12393,11990 12361,11990 L 12294,11990 12294,12049 12323,12049 C 12333,12049 12339,12054 12339,12064 L 12339,12302 Z"/>
    </g>
   </g>
   <g class="com.sun.star.drawing.ClosedBezierShape">
    <g id="id12">
     <rect class="BoundingBox" stroke="none" fill="none" x="12457" y="11981" width="387" height="508"/>
     <path fill="rgb(64,50,51)" stroke="none" d="M 12502,12488 L 12570,12488 12570,12329 C 12570,12311 12569,12298 12569,12298 L 12570,12298 C 12570,12298 12601,12355 12680,12355 12773,12355 12842,12282 12842,12168 12842,12057 12781,11981 12685,11981 12596,11981 12566,12045 12566,12045 L 12565,12045 C 12565,12045 12566,12037 12566,12026 12566,12003 12554,11990 12522,11990 L 12458,11990 12458,12049 12486,12049 C 12496,12049 12502,12054 12502,12064 L 12502,12488 Z M 12568,12170 C 12568,12078 12618,12041 12671,12041 12731,12041 12772,12091 12772,12169 12772,12250 12726,12296 12669,12296 12603,12296 12568,12233 12568,12170 Z"/>
    </g>
   </g>
   <g class="com.sun.star.drawing.ClosedBezierShape">
    <g id="id13">
     <rect class="BoundingBox" stroke="none" fill="none" x="12867" y="11981" width="335" height="375"/>
     <path fill="rgb(64,50,51)" stroke="none" d="M 12867,12168 C 12867,12274 12944,12355 13057,12355 13142,12355 13195,12303 13195,12303 L 13165,12254 C 13165,12254 13122,12296 13061,12296 12997,12296 12942,12253 12938,12176 L 13199,12176 C 13199,12176 13201,12157 13201,12148 13201,12056 13147,11981 13047,11981 12945,11981 12867,12054 12867,12168 Z M 12941,12126 C 12951,12067 12994,12035 13046,12035 13091,12035 13128,12067 13130,12126 L 12941,12126 Z"/>
    </g>
   </g>
  </g>
 </g>
</svg>